<svg xmlns="http://www.w3.org/2000/svg" xmlns:xlink="http://www.w3.org/1999/xlink" version="1.1" width="440" height="350">
  <style><![CDATA[.bpmn-hover > :first-child { stroke: orange; }]]></style>
  <defs>
    <marker viewBox="0 0 20 20" markerWidth="10" markerHeight="10" orient="auto" refX="11" refY="10" id="Shzmg80o42lr">
      <path d="M 1 5 L 11 10 L 1 15 Z" fill="#000000" style="stroke-width: 1px; stroke-linecap: round; stroke-dasharray: 10000px, 1px;"></path>
    </marker>
    <marker viewBox="0 0 20 20" markerWidth="20" markerHeight="20" orient="auto" refX="6" refY="6" id="Shzmg80o42lt">
      <circle cx="6" cy="6" r="5" fill="#ffffff" stroke="#000000" style="stroke-width: 1px; stroke-linecap: round; stroke-dasharray: 10000px, 1px;"></circle>
    </marker>
    <marker viewBox="0 0 20 20" markerWidth="20" markerHeight="20" orient="auto" refX="11" refY="10" id="Shzmg80o42lv">
      <path d="M 1 5 L 11 10 L 1 15 Z" fill="#ffffff" stroke="#000000" style="stroke-width: 1px; stroke-linecap: round; stroke-dasharray: 10000px, 1px;"></path>
    </marker>
    <marker viewBox="0 0 20 20" markerWidth="10" markerHeight="10" orient="auto" refX="11" refY="10" id="Shzmg80o42lx">
      <path d="M 1 5 L 11 10 L 1 15" fill="#ffffff" stroke="#000000" style="stroke-width: 1px; stroke-linecap: round; stroke-dasharray: 10000px, 1px;"></path>
    </marker>
    <marker viewBox="0 0 20 20" markerWidth="10" markerHeight="10" orient="auto" refX="-1" refY="10" id="Shzmg80o42lz">
      <path d="M 0 10 L 8 6 L 16 10 L 8 14 Z" fill="#ffffff" stroke="#000000" style="stroke-width: 1px; stroke-linecap: round; stroke-dasharray: 10000px, 1px;"></path>
    </marker>
    <marker viewBox="0 0 20 20" markerWidth="10" markerHeight="10" orient="auto" refX="-5" refY="10" id="Shzmg80o42m1">
      <path d="M 1 4 L 5 16" fill="#000000" stroke="#000000" style="stroke-width: 1px; stroke-linecap: round; stroke-dasharray: 10000px, 1px;"></path>
    </marker>
  </defs>
  <g transform="matrix(1,0,0,1,-10,-10)" class="djs-wrapper">
    <g class=" djs-group djs-shape" data-element-id="sid-EE74FCF8-75E0-4444-BC0D-B9096B6A1415" transform="matrix(1,0,0,1,15,15)">
      <rect x="-5" y="-5" width="110" height="90" fill="none" class="djs-outline"></rect>
      <rect x="0" y="0" width="100" height="80" fill="none" stroke="#ffffff" style="stroke-opacity: 0; pointer-events: stroke; stroke-width: 10px;" class="djs-hit"></rect>
      <g class=" djs-visual">
        <rect x="0" y="0" width="100" height="80" rx="10" ry="10" stroke="#000000" fill="#ffffff" style="stroke-width: 2px;"></rect>
        <g style="font-family: Arial, sans-serif; font-size: 12px;" class=" djs-label">
          <text x="22.5" y="43.75">undefined</text>
        </g>
      </g>
    </g>
    <g class=" djs-group djs-shape" data-element-id="sid-1077EBAA-70D6-47EE-9510-DF4479FAD35F" transform="matrix(1,0,0,1,15,135)">
      <rect x="-5" y="-5" width="110" height="90" fill="none" class="djs-outline"></rect>
      <rect x="0" y="0" width="100" height="80" fill="none" stroke="#ffffff" style="stroke-opacity: 0; pointer-events: stroke; stroke-width: 10px;" class="djs-hit"></rect>
      <g class="bpmn-hover" rel="popover" data-original-title="" title="">
        <rect x="0" y="0" width="100" height="80" rx="10" ry="10" stroke="#000000" fill="#ffffff" style="stroke-width: 2px;"></rect>
        <g style="font-family: Arial, sans-serif; font-size: 12px;" class=" djs-label">
          <text x="29" y="43.75">manual</text>
        </g>
        <path d="m 17,15 c 0.234,-0.01 5.604,0.008 8.029,0.004 0.808,0 1.271,-0.172 1.417,-0.752 0.227,-0.898 -0.334,-1.314 -1.338,-1.316 -2.467,-0.01 -7.886,-0.004 -8.108,-0.004 -0.014,-0.079 0.016,-0.533 0,-0.61 0.195,-0.042 8.507,0.006 9.616,0.002 0.877,-0.007 1.35,-0.438 1.353,-1.208 0.003,-0.768 -0.479,-1.09 -1.35,-1.091 -2.968,-0.002 -9.619,-0.013 -9.619,-0.013 v -0.591 c 0,0 5.052,-0.016 7.225,-0.016 0.888,-0.002 1.354,-0.416 1.351,-1.193 -0.006,-0.761 -0.492,-1.196 -1.361,-1.196 -3.473,-0.005 -10.86,-0.003 -11.0829995,-0.003 -0.022,-0.047 -0.045,-0.094 -0.069,-0.139 0.3939995,-0.319 2.0409995,-1.626 2.4149995,-2.017 0.469,-0.4870005 0.519,-1.1650005 0.162,-1.6040005 -0.414,-0.511 -0.973,-0.5 -1.48,-0.236 -1.4609995,0.764 -6.5999995,3.6430005 -7.7329995,4.2710005 -0.9,0.499 -1.516,1.253 -1.882,2.19 -0.37000002,0.95 -0.17,2.01 -0.166,2.979 0.004,0.718 -0.27300002,1.345 -0.055,2.063 0.629,2.087 2.425,3.312 4.859,3.318 4.6179995,0.014 9.2379995,-0.139 13.8569995,-0.158 0.755,-0.004 1.171,-0.301 1.182,-1.033 0.012,-0.754 -0.423,-0.969 -1.183,-0.973 -1.778,-0.01 -5.824,-0.004 -6.04,-0.004 10e-4,-0.084 0.003,-0.586 10e-4,-0.67 z" fill="none" stroke="#000000" style="stroke-width: 0.25px;"></path>
      </g>
    </g>
    <g class=" djs-group djs-shape" data-element-id="sid-3A1B9DDB-E7D7-451A-A22A-4EA9DFF362E0" transform="matrix(1,0,0,1,15,255)">
      <rect x="-5" y="-5" width="110" height="90" fill="none" class="djs-outline"></rect>
      <rect x="0" y="0" width="100" height="80" fill="none" stroke="#ffffff" style="stroke-opacity: 0; pointer-events: stroke; stroke-width: 10px;" class="djs-hit"></rect>
      <g class="bpmn-hover" rel="popover" data-original-title="" title="">
        <rect x="0" y="0" width="100" height="80" rx="10" ry="10" stroke="#000000" fill="#ffffff" style="stroke-width: 2px;"></rect>
        <g style="font-family: Arial, sans-serif; font-size: 12px;" class=" djs-label">
          <text x="37.5" y="43.75">user</text>
        </g>
        <path d="m 15,12 c 0.909,-0.845 1.594,-2.049 1.594,-3.385 0,-2.554 -1.805,-4.62199999 -4.357,-4.62199999 -2.55199998,0 -4.28799998,2.06799999 -4.28799998,4.62199999 0,1.348 0.974,2.562 1.89599998,3.405 -0.52899998,0.187 -5.669,2.097 -5.794,4.7560005 v 6.718 h 17 v -6.718 c 0,-2.2980005 -5.5279996,-4.5950005 -6.0509996,-4.7760005 zm -8,6 l 0,5.5 m 11,0 l 0,-5" fill="none" stroke="#000000" style="stroke-width: 0.5px;"></path>
        <path d="m 15,12 m 2.162,1.009 c 0,2.4470005 -2.158,4.4310005 -4.821,4.4310005 -2.66499998,0 -4.822,-1.981 -4.822,-4.4310005 " fill="none" stroke="#000000" style="stroke-width: 0.5px;"></path>
        <path d="m 15,12 m -6.9,-3.80 c 0,0 2.25099998,-2.358 4.27399998,-1.177 2.024,1.181 4.221,1.537 4.124,0.965 -0.098,-0.57 -0.117,-3.79099999 -4.191,-4.13599999 -3.57499998,0.001 -4.20799998,3.36699999 -4.20699998,4.34799999 z" fill="#000000" stroke="#000000" style="stroke-width: 0.5px;"></path>
      </g>
    </g>
    <g class=" djs-group djs-shape" data-element-id="sid-78961443-B838-4FCF-B866-47B5C02AF1CF" transform="matrix(1,0,0,1,167,15)">
      <rect x="-5" y="-5" width="110" height="90" fill="none" class="djs-outline"></rect>
      <rect x="0" y="0" width="100" height="80" fill="none" stroke="#ffffff" style="stroke-opacity: 0; pointer-events: stroke; stroke-width: 10px;" class="djs-hit"></rect>
      <g class="bpmn-hover" rel="popover" data-original-title="" title="">
        <rect x="0" y="0" width="100" height="80" rx="10" ry="10" stroke="#000000" fill="#ffffff" style="stroke-width: 2px;"></rect>
        <g style="font-family: Arial, sans-serif; font-size: 12px;" class=" djs-label">
          <text x="30.5" y="43.75">receive</text>
        </g>
        <path d="m 6.3,5.6000000000000005 l 0,12.6 l 18.900000000000002,0 l 0,-12.6 z l 9.450000000000001,5.4 l 9.450000000000001,-5.4" fill="none" stroke="#000000" style="stroke-width: 1px;"></path>
      </g>
    </g>
    <g class=" djs-group djs-shape" data-element-id="sid-4D496B82-8352-4988-BAC7-D1EBD31E9686" transform="matrix(1,0,0,1,165,135)">
      <rect x="-5" y="-5" width="110" height="90" fill="none" class="djs-outline"></rect>
      <rect x="0" y="0" width="100" height="80" fill="none" stroke="#ffffff" style="stroke-opacity: 0; pointer-events: stroke; stroke-width: 10px;" class="djs-hit"></rect>
      <g class="bpmn-hover" rel="popover" data-original-title="" title="">
        <rect x="0" y="0" width="100" height="80" rx="10" ry="10" stroke="#000000" fill="#ffffff" style="stroke-width: 2px;"></rect>
        <g style="font-family: Arial, sans-serif; font-size: 12px;" class=" djs-label">
          <text x="30.5" y="36.25">receive</text>
          <text x="14" y="51.25">(instantiated)</text>
        </g>
        <circle cx="14" cy="14" r="10" stroke="#000000" fill="#ffffff" style="stroke-width: 1px;"></circle>
        <path d="m 7.77,9.52 l 0,8.4 l 12.6,0 l 0,-8.4 z l 6.3,3.6 l 6.3,-3.6" fill="none" stroke="#000000" style="stroke-width: 1px;"></path>
      </g>
    </g>
    <g class=" djs-group djs-shape" data-element-id="sid-560C2BF6-8B1C-44F4-8C10-0295C94BB023" transform="matrix(1,0,0,1,165,255)">
      <rect x="-5" y="-5" width="110" height="90" fill="none" class="djs-outline"></rect>
      <rect x="0" y="0" width="100" height="80" fill="none" stroke="#ffffff" style="stroke-opacity: 0; pointer-events: stroke; stroke-width: 10px;" class="djs-hit"></rect>
      <g class="bpmn-hover" rel="popover" data-original-title="" title="">
        <rect x="0" y="0" width="100" height="80" rx="10" ry="10" stroke="#000000" fill="#ffffff" style="stroke-width: 2px;"></rect>
        <g style="font-family: Arial, sans-serif; font-size: 12px;" class=" djs-label">
          <text x="36" y="43.75">send</text>
        </g>
        <path d="m 5.984999999999999,4.997999999999999 l 0,14 l 21,0 l 0,-14 z l 10.5,6 l 10.5,-6" fill="#000000" stroke="#ffffff" style="stroke-width: 1px;"></path>
      </g>
    </g>
    <g class=" djs-group djs-shape" data-element-id="sid-84857C66-6D20-422B-8FBE-827ED409BACD" transform="matrix(1,0,0,1,315,15)">
      <rect x="-6.803654670715332" y="-5" width="111.80365753173828" height="90" fill="none" class="djs-outline"></rect>
      <rect x="-1.803654670715332" y="0" width="101.80365753173828" height="80" fill="none" stroke="#ffffff" style="stroke-opacity: 0; pointer-events: stroke; stroke-width: 10px;" class="djs-hit"></rect>
      <g class="bpmn-hover" rel="popover" data-original-title="" title="">
        <rect x="0" y="0" width="100" height="80" rx="10" ry="10" stroke="#000000" fill="#ffffff" style="stroke-width: 2px;"></rect>
        <g style="font-family: Arial, sans-serif; font-size: 12px;" class=" djs-label">
          <text x="35" y="43.75">script</text>
        </g>
        <path d="m 15,20 c 9.966553,-6.27276 -8.000926,-7.91932 2.968968,-14.938 l -8.802728,0 c -10.969894,7.01868 6.997585,8.66524 -2.968967,14.938 z m -7,-12 l 5,0 m -4.5,3 l 4.5,0 m -3,3 l 5,0m -4,3 l 5,0" fill="none" stroke="#000000" style="stroke-width: 1px;"></path>
      </g>
    </g>
    <g class=" djs-group djs-shape" data-element-id="sid-49FD21F7-CB64-40E5-9C04-EA23714A3A20" transform="matrix(1,0,0,1,315,135)">
      <rect x="-5" y="-5" width="110" height="90" fill="none" class="djs-outline"></rect>
      <rect x="0" y="0" width="100" height="80" fill="none" stroke="#ffffff" style="stroke-opacity: 0; pointer-events: stroke; stroke-width: 10px;" class="djs-hit"></rect>
      <g class="bpmn-hover" rel="popover" data-original-title="" title="">
        <rect x="0" y="0" width="100" height="80" rx="10" ry="10" stroke="#000000" fill="#ffffff" style="stroke-width: 2px;"></rect>
        <g style="font-family: Arial, sans-serif; font-size: 12px;" class=" djs-label">
          <text x="30.5" y="43.75">service</text>
        </g>
        <path d="m 12,18 v -1.71335 c 0.352326,-0.0705 0.703932,-0.17838 1.047628,-0.32133 0.344416,-0.14465 0.665822,-0.32133 0.966377,-0.52145 l 1.19431,1.18005 1.567487,-1.57688 -1.195028,-1.18014 c 0.403376,-0.61394 0.683079,-1.29908 0.825447,-2.01824 l 1.622133,-0.01 v -2.2196 l -1.636514,0.01 c -0.07333,-0.35153 -0.178319,-0.70024 -0.323564,-1.04372 -0.145244,-0.34406 -0.321407,-0.6644 -0.522735,-0.96217 l 1.131035,-1.13631 -1.583305,-1.56293 -1.129598,1.13589 c -0.614052,-0.40108 -1.302883,-0.68093 -2.022633,-0.82247 l 0.0093,-1.61852 h -2.241173 l 0.0042,1.63124 c -0.353763,0.0736 -0.705369,0.17977 -1.049785,0.32371 -0.344415,0.14437 -0.665102,0.32092 -0.9635006,0.52046 l -1.1698628,-1.15823 -1.5667691,1.5792 1.1684265,1.15669 c -0.4026573,0.61283 -0.68308,1.29797 -0.8247287,2.01713 l -1.6588041,0.003 v 2.22174 l 1.6724648,-0.006 c 0.073327,0.35077 0.1797598,0.70243 0.3242851,1.04472 0.1452428,0.34448 0.3214064,0.6644 0.5227339,0.96066 l -1.1993431,1.19723 1.5840256,1.56011 1.1964668,-1.19348 c 0.6140517,0.40346 1.3028827,0.68232 2.0233517,0.82331 l 7.19e-4,1.69892 h 2.226848 z m 0.221462,-3.9957 c -1.788948,0.7502 -3.8576,-0.0928 -4.6097055,-1.87438 -0.7521065,-1.78321 0.090598,-3.84627 1.8802645,-4.59604 1.78823,-0.74936 3.856881,0.0929 4.608987,1.87437 0.752106,1.78165 -0.0906,3.84612 -1.879546,4.59605 z" fill="none" stroke="#000000" style="stroke-width: 1px;"></path>
        <path d="m 17.2,18 c -1.788948,0.7502 -3.8576,-0.0928 -4.6097055,-1.87438 -0.7521065,-1.78321 0.090598,-3.84627 1.8802645,-4.59604 1.78823,-0.74936 3.856881,0.0929 4.608987,1.87437 0.752106,1.78165 -0.0906,3.84612 -1.879546,4.59605 z" fill="#ffffff" stroke="none" style="stroke-width: 0px;"></path>
        <path d="m 17,22 v -1.71335 c 0.352326,-0.0705 0.703932,-0.17838 1.047628,-0.32133 0.344416,-0.14465 0.665822,-0.32133 0.966377,-0.52145 l 1.19431,1.18005 1.567487,-1.57688 -1.195028,-1.18014 c 0.403376,-0.61394 0.683079,-1.29908 0.825447,-2.01824 l 1.622133,-0.01 v -2.2196 l -1.636514,0.01 c -0.07333,-0.35153 -0.178319,-0.70024 -0.323564,-1.04372 -0.145244,-0.34406 -0.321407,-0.6644 -0.522735,-0.96217 l 1.131035,-1.13631 -1.583305,-1.56293 -1.129598,1.13589 c -0.614052,-0.40108 -1.302883,-0.68093 -2.022633,-0.82247 l 0.0093,-1.61852 h -2.241173 l 0.0042,1.63124 c -0.353763,0.0736 -0.705369,0.17977 -1.049785,0.32371 -0.344415,0.14437 -0.665102,0.32092 -0.9635006,0.52046 l -1.1698628,-1.15823 -1.5667691,1.5792 1.1684265,1.15669 c -0.4026573,0.61283 -0.68308,1.29797 -0.8247287,2.01713 l -1.6588041,0.003 v 2.22174 l 1.6724648,-0.006 c 0.073327,0.35077 0.1797598,0.70243 0.3242851,1.04472 0.1452428,0.34448 0.3214064,0.6644 0.5227339,0.96066 l -1.1993431,1.19723 1.5840256,1.56011 1.1964668,-1.19348 c 0.6140517,0.40346 1.3028827,0.68232 2.0233517,0.82331 l 7.19e-4,1.69892 h 2.226848 z m 0.221462,-3.9957 c -1.788948,0.7502 -3.8576,-0.0928 -4.6097055,-1.87438 -0.7521065,-1.78321 0.090598,-3.84627 1.8802645,-4.59604 1.78823,-0.74936 3.856881,0.0929 4.608987,1.87437 0.752106,1.78165 -0.0906,3.84612 -1.879546,4.59605 z" fill="#ffffff" stroke="#000000" style="stroke-width: 1px;"></path>
      </g>
    </g>
    <g class=" djs-group djs-shape" data-element-id="sid-57BFD335-5F96-4C21-858E-81E4D52510EB" transform="matrix(1,0,0,1,315,255)">
      <rect x="-5" y="-5" width="110" height="90" fill="none" class="djs-outline"></rect>
      <rect x="0" y="0" width="100" height="80" fill="none" stroke="#ffffff" style="stroke-opacity: 0; pointer-events: stroke; stroke-width: 10px;" class="djs-hit"></rect>
      <g class="bpmn-hover" rel="popover" data-original-title="" title="">
        <rect x="0" y="0" width="100" height="80" rx="10" ry="10" stroke="#000000" fill="#ffffff" style="stroke-width: 2px;"></rect>
        <g style="font-family: Arial, sans-serif; font-size: 12px;" class=" djs-label">
          <text x="12" y="43.75">business rule</text>
        </g>
        <path d="m 8,8 0,4 20,0 0,-4 z" fill="#aaaaaa" stroke="#000000" style="stroke-width: 1px;"></path>
        <path d="m 8,8 0,12 20,0 0,-12 zm 0,8 l 20,0 m -13,-4 l 0,8" fill="none" stroke="#000000" style="stroke-width: 1px;"></path>
      </g>
    </g>
  </g>
</svg>